<?xml version="1.0"?>
<svg xmlns="http://www.w3.org/2000/svg" width="512" height="512" viewBox="0 0 128 128"><g><path d="M121.5,4.75H45.25C23.392,4.75,10.178,12,4.852,26.911a1.751,1.751,0,0,0,.521,1.928l4.75,4A1.751,1.751,0,0,0,12.3,32.9c1.235-.925,2.314-1.8,3.267-2.577,4.905-3.987,7.7-6.261,22.014-7.224L32.359,76.313a1.517,1.517,0,0,0-.029.179C31.317,85.9,25.845,91.94,21.018,97.272a38.7,38.7,0,0,0-5.7,7.292c-1.476,2.8-1.239,6.084.668,9.245,3.355,5.558,10.814,9.441,18.14,9.441,7.537,0,12.756-6.976,13.961-18.66.049-.472,2.833-28.818,8.056-82l1.6,0H86.111L78.822,96.826c-1.106,9.412.428,16.768,4.433,21.273,3.023,3.4,7.312,5.121,12.748,5.121,5.124,0,21.934-1.822,23.12-25.251a1.751,1.751,0,0,0-1.748-1.839h-6.37a1.751,1.751,0,0,0-1.7,1.347c-.019.08-2.057,8.1-7.119,8.79a3.2,3.2,0,0,1-2.817-.813c-.989-.956-2.535-3.678-1.775-11.179l7.036-71.692H121.5a1.75,1.75,0,0,0,1.75-1.75V6.5A1.75,1.75,0,0,0,121.5,4.75Zm-1.75,14.333H103.041a1.751,1.751,0,0,0-1.742,1.579L94.108,93.928c-.693,6.838.258,11.562,2.827,14.044a6.643,6.643,0,0,0,5.722,1.761c5.932-.811,8.707-7.245,9.656-10.1H115.5c-1.694,18.087-14.1,20.09-19.493,20.09-4.394,0-7.8-1.328-10.132-3.948-3.323-3.736-4.558-10.146-3.569-18.571L89.783,21a1.751,1.751,0,0,0-1.742-1.921H57.75c-1.1,0-2.164,0-3.2.009a1.75,1.75,0,0,0-1.732,1.579C46.1,89.139,44.643,103.9,44.609,104.23c-1,9.718-4.919,15.52-10.479,15.52-6.872,0-12.819-3.9-15.143-7.75a5.847,5.847,0,0,1-.569-5.8,36.659,36.659,0,0,1,5.194-6.575c4.9-5.406,10.98-12.126,12.174-22.54a1.978,1.978,0,0,0,.036-.22L41.264,21.4a1.75,1.75,0,0,0-1.837-1.918c-17.231.944-20.557,3.648-26.068,8.127-.656.534-1.327,1.079-2.057,1.649l-2.727-2.3C13.617,14.374,25.63,8.25,45.25,8.25h74.5Z"/><path d="M93.233,59.339a1.685,1.685,0,0,0,.173.009,1.752,1.752,0,0,0,1.74-1.579l.934-9.515a1.75,1.75,0,0,0-3.484-.342l-.934,9.515A1.75,1.75,0,0,0,93.233,59.339Z"/></g></svg>
