<svg height="512" viewBox="0 0 128 128" width="512" xmlns="http://www.w3.org/2000/svg"><g><path d="m103.041 20.833h18.459v-14.333h-76.25c-25.808 0-35 10.5-38.75 21l4.75 4c7.835-5.872 8.572-9.194 28.273-10.273l-5.443 55.463-.01-.01c-1.58 14.67-13.57 21.82-17.2 28.7s6.38 16.12 17.26 16.12c6.24 0 11.058-5.812 12.22-17.09.072-.7 6.048-61.556 8.21-83.568 1.033-.006 2.093-.009 3.19-.009h30.291c-1.909 19.44-6.762 68.875-7.481 76.2-1.685 14.345 2.8 24.44 15.443 24.44 10.37 0 20.5-6.39 21.372-23.59h-6.37s-2.193 9.245-8.585 10.12c-3.923.537-7.732-2.437-6.57-13.9z" fill="#FFFFFF"/><g fill="#FFFFFF"><path d="m82.245 61.962-.513 5.214a1.75 1.75 0 0 0 1.568 1.912 1.685 1.685 0 0 0 .173.009 1.75 1.75 0 0 0 1.74-1.579l.512-5.214a1.75 1.75 0 0 0 -3.483-.342z"/><path d="m83 54.305a1.75 1.75 0 1 0 3.483.341l3.3-33.646a1.751 1.751 0 0 0 -1.742-1.921h-30.291c-1.1 0-2.164 0-3.2.009a1.75 1.75 0 0 0 -1.732 1.579c-6.718 68.472-8.175 83.233-8.209 83.563-1 9.718-4.919 15.52-10.479 15.52-6.872 0-12.819-3.9-15.143-7.75a5.847 5.847 0 0 1 -.569-5.8 36.659 36.659 0 0 1 5.194-6.575c4.9-5.406 10.98-12.126 12.174-22.54a1.978 1.978 0 0 0 .036-.22l5.442-55.465a1.75 1.75 0 0 0 -1.837-1.918c-17.231.944-20.557 3.648-26.068 8.127-.656.534-1.327 1.079-2.057 1.649l-2.727-2.3c5.042-12.584 17.055-18.708 36.675-18.708h6.083a1.75 1.75 0 0 0 0-3.5h-6.083c-21.858 0-35.072 7.25-40.398 22.161a1.751 1.751 0 0 0 .521 1.928l4.75 4a1.751 1.751 0 0 0 2.177.061c1.235-.925 2.314-1.8 3.267-2.577 4.905-3.987 7.7-6.261 22.014-7.224l-5.222 53.214a1.517 1.517 0 0 0 -.029.179c-1.013 9.408-6.485 15.448-11.312 20.78a38.7 38.7 0 0 0 -5.7 7.292c-1.476 2.8-1.239 6.084.668 9.245 3.355 5.558 10.814 9.441 18.14 9.441 7.537 0 12.756-6.976 13.961-18.66.049-.472 2.833-28.818 8.056-82h1.6 28.368z"/><path d="m121.5 4.75h-61.333a1.75 1.75 0 0 0 0 3.5h59.583v10.833h-16.709a1.751 1.751 0 0 0 -1.742 1.579l-7.191 73.266c-.693 6.838.258 11.562 2.827 14.044a6.643 6.643 0 0 0 5.722 1.761c5.932-.811 8.707-7.245 9.656-10.1h3.187c-1.694 18.087-14.1 20.09-19.493 20.09-4.394 0-7.8-1.328-10.132-3.948-3.323-3.736-4.558-10.146-3.569-18.571l2.112-21.513a1.75 1.75 0 0 0 -3.484-.341l-2.112 21.476c-1.106 9.412.428 16.768 4.433 21.273 3.023 3.4 7.312 5.121 12.748 5.121 5.124 0 21.934-1.822 23.12-25.251a1.749 1.749 0 0 0 -1.748-1.839h-6.37a1.751 1.751 0 0 0 -1.7 1.347c-.019.08-2.057 8.1-7.119 8.79a3.2 3.2 0 0 1 -2.817-.813c-.989-.956-2.535-3.678-1.775-11.179l7.036-71.692h16.87a1.75 1.75 0 0 0 1.75-1.75v-14.333a1.75 1.75 0 0 0 -1.75-1.75z"/><path d="m93.406 59.348a1.752 1.752 0 0 0 1.74-1.579l.934-9.515a1.75 1.75 0 0 0 -3.484-.342l-.934 9.515a1.75 1.75 0 0 0 1.571 1.912 1.685 1.685 0 0 0 .173.009z"/></g></g></svg>