<svg id="Capa_1" enable-background="new 0 0 512 512" height="512" viewBox="0 0 512 512" width="512" xmlns="http://www.w3.org/2000/svg"><g><path d="m436.878 191.573c27.055-11.722 45.122-38.551 45.122-68.805v-122.768h-30c-32.747 0-60.64 21.104-70.842 50.419-32.518-31.209-76.635-50.419-125.158-50.419-48.477 0-92.558 19.173-125.067 50.33-10.227-29.269-38.097-50.33-70.811-50.33h-30v122.768c0 30.208 18.013 57.003 45 68.753v49.601c0 32.078 8.405 62.226 23.111 88.376-40.923 18.351-68.233 59.394-68.233 105.303v77.199h452v-77.199c0-45.908-27.31-86.951-68.233-105.303 14.706-26.15 23.111-56.298 23.111-88.376zm15.122-161.573v92.768c0 13.896-6.351 26.584-16.603 34.929-3.585-27.903-13.562-53.83-28.397-76.278v-6.419c0-24.813 20.187-45 45-45zm-211 452h-79.293l-18.822-99.845c27.338 21.97 61.167 36.171 98.115 39.219zm30-60.627c36.075-2.976 69.182-16.579 96.173-37.67l-18.53 98.297h-77.643zm-15-29.373c-78.216 0-142.715-59.827-150.155-136.122h33.342c18.846 0 36.051 11.82 42.812 29.411 11.183 29.099 39.642 48.65 70.815 48.65h6.373c31.173 0 59.631-19.551 70.815-48.65 6.76-17.592 23.965-29.411 42.812-29.411h33.342c-7.441 76.295-71.94 136.122-150.156 136.122zm116.813-166.122c-31.174 0-59.633 19.551-70.815 48.649-6.761 17.592-23.966 29.412-42.812 29.412h-6.373c-18.847 0-36.052-11.82-42.813-29.412-11.184-29.099-39.642-48.649-70.814-48.649h-34.064v-45c0-5.062.255-10.065.744-15h300.267c.489 4.935.744 9.938.744 15v45zm-62.985-185.944-53.828 30.493-53.828-30.493c16.728-6.41 34.873-9.934 53.828-9.934s37.1 3.523 53.828 9.934zm-139.197 16.611 85.369 48.361 85.369-48.361c27.516 18.952 48.464 46.785 58.655 79.333h-288.048c10.191-32.548 31.139-60.381 58.655-79.333zm-110.509 66.223v-92.768c24.813 0 45 20.187 45 45v6.234c-14.887 22.466-24.902 48.427-28.507 76.373-10.187-8.346-16.493-20.993-16.493-34.839zm-.122 312.033c0-32.966 19.032-62.538 47.828-76.672l23.351 123.871h-71.179zm392 0v47.199h-72.829l23.489-124.604c29.643 13.829 49.34 43.864 49.34 77.405z"/></g></svg>